
<svg width="37px" height="37px" viewBox="0 0 37 37" version="1.1" xmlns="http://www.w3.org/2000/svg" xmlns:xlink="http://www.w3.org/1999/xlink">
    <defs>
        <polygon id="path-1" points="0.244774652 1.36275 1.68227465 1.36275 1.68227465 2.77768125 0.244774652 2.77768125"></polygon>
        <polygon id="path-3" points="1.15301875 -0.00043125 5.465375 -0.00043125 5.465375 4.31206875 1.15301875 4.31206875"></polygon>
        <polygon id="path-5" points="0 -0.00043125 4.3122125 -0.00043125 4.3122125 4.31206875 0 4.31206875"></polygon>
    </defs>
    <g id="Page-1" stroke="none" stroke-width="1" fill="none" fill-rule="evenodd">
        <g id="address-entered" transform="translate(-19.000000, -400.000000)">
            <g id="Group" transform="translate(20.000000, 401.000000)">
                <circle id="Oval" stroke="#000000" fill="#000000" cx="17.5" cy="17.5" r="17.5"></circle>
                <g id="Group-20" transform="translate(6.000000, 4.000000)">
                    <path d="M21.532025,16.7552125 C21.532025,16.7552125 17.7585875,16.21615 17.9080875,20.22965 L4.8210875,20.22965 C4.8210875,20.22965 5.2408375,17.006775 1.8857125,16.730775 L1.8857125,15.437025 C1.8857125,15.437025 5.271025,14.9583375 6.288775,18.731775 L16.5309625,18.731775 C16.5309625,18.731775 16.8299625,16.0364625 19.646025,15.557775 L15.333525,4.1167125 L16.71065,3.488525 L21.532025,16.7552125 Z" id="Fill-1" fill="#FFFFFE"></path>
                    <polygon id="Fill-3" fill="#FFFFFE" points="12.92255 3.75029375 13.5967375 5.05266875 18.64955 2.72391875 17.7971125 1.54948125"></polygon>
                    <path d="M13.9361313,4.43109375 C13.9361313,4.83934375 13.6098188,5.17140625 13.2087563,5.17140625 C12.8048187,5.17140625 12.4799438,4.83934375 12.4799438,4.43109375 C12.4799438,4.02284375 12.8048187,3.69078125 13.2087563,3.69078125 C13.6098188,3.69078125 13.9361313,4.02284375 13.9361313,4.43109375" id="Fill-5" fill="#FFFFFE"></path>
                    <g id="Group-9" transform="translate(17.250000, 0.074175)">
                        <mask id="mask-2" fill="white">
                            <use xlink:href="#path-1"></use>
                        </mask>
                        <g id="Clip-8"></g>
                        <path d="M1.48996875,1.821025 C1.65240625,2.1818375 1.54890625,2.580025 1.25853125,2.712275 C0.96671875,2.8430875 0.59871875,2.65765 0.43771875,2.2968375 C0.27384375,1.936025 0.37878125,1.5364 0.66915625,1.4055875 C0.96096875,1.274775 1.32896875,1.4602125 1.48996875,1.821025" id="Fill-7" fill="#FFFFFE" mask="url(#mask-2)"></path>
                    </g>
                    <g id="Group-12" transform="translate(17.250000, 17.324175)">
                        <mask id="mask-4" fill="white">
                            <use xlink:href="#path-3"></use>
                        </mask>
                        <g id="Clip-11"></g>
                        <path d="M5.46551875,2.15581875 C5.46551875,3.34750625 4.49951875,4.31206875 3.30926875,4.31206875 C2.11901875,4.31206875 1.15301875,3.34750625 1.15301875,2.15581875 C1.15301875,0.96556875 2.11901875,-0.00043125 3.30926875,-0.00043125 C4.49951875,-0.00043125 5.46551875,0.96556875 5.46551875,2.15581875" id="Fill-10" fill="#FFFFFE" mask="url(#mask-4)"></path>
                    </g>
                    <g id="Group-15" transform="translate(0.000000, 17.324175)">
                        <mask id="mask-6" fill="white">
                            <use xlink:href="#path-5"></use>
                        </mask>
                        <g id="Clip-14"></g>
                        <path d="M4.3122125,2.15581875 C4.3122125,3.34750625 3.34765,4.31206875 2.1559625,4.31206875 C0.9657125,4.31206875 -0.0002875,3.34750625 -0.0002875,2.15581875 C-0.0002875,0.96556875 0.9657125,-0.00043125 2.1559625,-0.00043125 C3.34765,-0.00043125 4.3122125,0.96556875 4.3122125,2.15581875" id="Fill-13" fill="#FFFFFE" mask="url(#mask-6)"></path>
                    </g>
                    <path d="M21.0028813,19.4799937 C21.0028813,19.7258062 20.8045063,19.9241813 20.5586938,19.9241813 C20.3143188,19.9241813 20.1159437,19.7258062 20.1159437,19.4799937 C20.1159437,19.2356188 20.3143188,19.0358063 20.5586938,19.0358063 C20.8045063,19.0358063 21.0028813,19.2356188 21.0028813,19.4799937" id="Fill-16" fill="#1A1919"></path>
                    <path d="M2.599575,19.4799937 C2.599575,19.7258062 2.4012,19.9241813 2.1553875,19.9241813 C1.9110125,19.9241813 1.7126375,19.7258062 1.7126375,19.4799937 C1.7126375,19.2356188 1.9110125,19.0358063 2.1553875,19.0358063 C2.4012,19.0358063 2.599575,19.2356188 2.599575,19.4799937" id="Fill-18" fill="#1A1919"></path>
                </g>
            </g>
        </g>
    </g>
</svg>