
<svg width="37px" height="37px" viewBox="0 0 37 37" version="1.1" xmlns="http://www.w3.org/2000/svg" xmlns:xlink="http://www.w3.org/1999/xlink">
    <g id="Page-1" stroke="none" stroke-width="1" fill="none" fill-rule="evenodd">
        <g id="address-entered" transform="translate(-177.000000, -601.000000)">
            <g id="Group-4" transform="translate(178.000000, 602.000000)">
                <circle id="Oval" stroke="#000000" fill="#000000" cx="17.5" cy="17.5" r="17.5"></circle>
                <g id="Group-5" transform="translate(13.000000, 6.000000)" fill="#FFFFFE">
                    <path d="M1.56716418,23 L1.02985075,23 C0.892164179,22.9314941 0.742208955,22.8801484 0.618940299,22.7914277 C0.108537313,22.4241465 -0.031119403,21.7675684 0.257238806,21.1188066 C0.845731343,19.7946895 1.4379403,18.4721895 2.02683582,17.148252 C2.06270149,17.0675723 2.09695522,16.9817715 2.10832836,16.8952969 C2.1708806,16.4207422 2.22689552,15.945334 2.28371642,15.4700605 C2.47101493,13.9031855 2.65777612,12.3361758 2.84449254,10.7692109 C2.95231343,9.86425977 3.05959701,8.95921875 3.17207463,8.01271484 C3.09501493,8.08144531 3.04504478,8.12196484 2.99973134,8.16715625 C2.7138806,8.45200586 2.42283582,8.73204883 2.14791045,9.02723047 C2.06834328,9.11262695 2.00502985,9.23773437 1.98783582,9.35273437 C1.93697015,9.69261328 1.91440299,10.0367148 1.87804478,10.3788398 C1.80841791,11.0333965 1.74940299,11.6894355 1.66235821,12.3416562 C1.58762687,12.9021914 1.18831343,13.232457 0.705716418,13.1576621 C0.322298507,13.0982305 0.12519403,12.8282949 0,12.4882812 L0,12.1289062 C0.015358209,12.0566719 0.0365373134,11.9851113 0.0452238806,11.9120684 C0.177626866,10.7980957 0.298298507,9.6825957 0.448567164,8.57109375 C0.476731343,8.36247656 0.576492537,8.1261875 0.719910448,7.97664258 C1.77483582,6.87628125 2.83979104,5.78512891 3.92050746,4.71019336 C4.82104478,3.81445117 6.15313433,3.98892773 6.82714925,5.06808594 C7.48020896,6.11373242 8.12713433,7.16324219 8.78744776,8.2042168 C8.8741791,8.34095898 9.00743284,8.46736914 9.1481194,8.54715039 C9.89404478,8.97008984 10.6456567,9.38328125 11.403,9.78542187 C11.6948955,9.94040234 11.9160448,10.1380137 12,10.4667969 L12,10.7363281 C11.6581343,11.624793 11.0698657,11.5613633 10.4992388,11.2151953 C9.93237313,10.8712285 9.36058209,10.5278008 8.76197015,10.2461406 C8.03673134,9.90491406 7.48786567,9.41261523 7.13986567,8.68896875 C7.06531343,8.53389844 6.95744776,8.395 6.86489552,8.24868945 C6.72483582,9.17915625 6.62391045,10.0905762 6.54,11.0035684 C6.51864179,11.2361738 6.50341791,11.4876914 6.56659701,11.7069551 C7.49449254,14.9279434 8.43891045,18.144125 9.36823881,21.3647539 C9.42980597,21.5780879 9.44744776,21.8268652 9.405,22.0432988 C9.30040299,22.5765664 8.91116418,22.8509492 8.41791045,23 L7.92537313,23 C7.35044776,22.8411562 7.08864179,22.4205527 6.9350597,21.874168 C6.48058209,20.2575195 6.00635821,18.6464863 5.53907463,17.0335215 C5.34640299,16.368543 5.15167164,15.7041484 4.95792537,15.0394844 C4.87562687,15.4185801 4.81907463,15.7947559 4.79355224,16.173043 C4.74577612,16.8804277 4.58243284,17.549584 4.28270149,18.1971777 C3.69035821,19.476957 3.12277612,20.7685059 2.55891045,22.0613125 C2.35732836,22.5235586 2.08343284,22.8842812 1.56716418,23" id="Fill-1"></path>
                    <path d="M5.68656716,0 C6.13101493,0.131126953 6.51895522,0.342125 6.80986567,0.722388672 C7.25350746,1.30233008 7.31435821,2.16478516 6.93770149,2.81408594 C6.55947761,3.46608203 5.84350746,3.80025586 5.07008955,3.68579492 C4.39097015,3.58530469 3.76468657,2.98519336 3.60326866,2.2802793 C3.37508955,1.28395703 4.06558209,0.229955078 5.0718806,0.0367011719 C5.09901493,0.0315351562 5.12350746,0.0125332031 5.14925373,0 L5.68656716,0 Z" id="Fill-3"></path>
                </g>
            </g>
        </g>
    </g>
</svg>